<?xml version="1.0" encoding="UTF-8"?>
<svg width="26px" height="13px" viewBox="0 0 26 13" version="1.1" xmlns="http://www.w3.org/2000/svg" xmlns:xlink="http://www.w3.org/1999/xlink">
    <!-- Generator: Sketch 46.1 (44463) - http://www.bohemiancoding.com/sketch -->
    <title>ClosedEye</title>
    <desc>Created with Sketch.</desc>
    <defs></defs>
    <g id="Page-1" stroke="none" stroke-width="1" fill="none" fill-rule="evenodd">
        <g id="Artboard" transform="translate(-103.000000, -145.000000)" fill="#808890">
            <path d="M106.30286,149.30156 C106.525076,149.30156 106.747915,149.382131 106.920625,149.544244 C107.27521,149.876667 107.285498,150.425786 106.944193,150.770899 L104.532615,153.207996 C104.191186,153.553048 103.627042,153.563248 103.272769,153.230886 C102.91862,152.898585 102.907771,152.349223 103.249325,152.004293 L105.661152,149.567134 C105.835857,149.390388 106.069296,149.30156 106.30286,149.30156 Z M109.067963,152.223115 C109.222217,151.914797 109.539268,151.735562 109.869162,151.735562 C110.000409,151.735562 110.133152,151.763795 110.259162,151.823418 C110.701287,152.033497 110.884908,152.552866 110.669239,152.983406 L109.145776,156.02694 C108.930107,156.457541 108.396577,156.636472 107.954639,156.426636 C107.512203,156.216618 107.328332,155.697249 107.543939,155.266709 L109.067963,152.223115 Z M113.015411,153.690631 C113.0825,153.260759 113.462337,152.952805 113.895109,152.952805 C113.939752,152.952805 113.984644,152.956084 114.029723,152.962823 C114.516054,153.03459 114.850874,153.476667 114.777114,153.950376 L114.256366,157.297067 C114.182668,157.770656 113.728822,158.096642 113.241929,158.024875 C112.755661,157.953109 112.420841,157.510911 112.494601,157.037079 L113.015411,153.690631 Z M117.944563,152.962945 C117.989829,152.956205 118.034658,152.952866 118.079301,152.952866 C118.511949,152.952866 118.891848,153.26082 118.959061,153.690571 L119.479747,157.03714 C119.55357,157.510971 119.218625,157.953169 118.732419,158.024936 C118.245714,158.096703 117.79168,157.770777 117.717982,157.297128 L117.197234,153.950619 C117.123474,153.476788 117.458232,153.034712 117.944563,152.962945 Z M121.715435,151.823418 C121.84132,151.763855 121.974001,151.735683 122.105311,151.735683 C122.435268,151.735683 122.752443,151.915039 122.906572,152.223236 L124.430471,155.266709 C124.64614,155.69731 124.462208,156.216618 124.019771,156.426636 C123.577834,156.636472 123.044241,156.457602 122.828634,156.02694 L121.305172,152.983224 C121.089565,152.552744 121.273373,152.033376 121.715435,151.823418 Z M128.701829,153.230886 C128.347618,153.563188 127.783474,153.553048 127.44192,153.208118 L125.030093,150.770959 C124.688788,150.425847 124.699076,149.876727 125.053786,149.544244 C125.226433,149.382131 125.449085,149.30156 125.671488,149.30156 C125.905239,149.30156 126.138366,149.390388 126.313133,149.567195 L128.72521,152.004353 C129.066764,152.349223 129.055977,152.898524 128.701829,153.230886 Z M105.518983,145 L105.518983,145 C107.065186,146.678269 110.936828,150.269783 115.852675,150.400151 C119.485651,150.492682 123.019323,148.69924 126.384438,145.067442 C126.504142,145.20314 126.62354,145.341309 126.742628,145.481945 C126.830702,145.585822 126.870606,145.711641 126.870321,145.836348 C126.870606,145.961334 126.830702,146.087152 126.742628,146.191029 C123.308312,150.247224 119.61576,152.241715 115.767011,152.145615 C109.557652,151.976468 105.283355,146.403505 105.104357,146.166588 C105.096091,146.155478 105.090391,146.143257 105.083265,146.131592 C105.077279,146.122704 105.071864,146.113538 105.066448,146.103817 C105.053622,146.081598 105.042791,146.059378 105.03367,146.036325 C105.029394,146.025215 105.025689,146.014105 105.021984,146.002996 C105.014858,145.981054 105.008872,145.959112 105.004597,145.936892 C105.001746,145.922449 105.000036,145.908007 104.998611,145.893286 C104.996616,145.874399 104.995191,145.855513 104.995191,145.836348 C104.995191,145.817462 104.996616,145.798575 104.998611,145.779688 C105.000321,145.764968 105.002032,145.750803 105.004597,145.736082 C105.008872,145.713863 105.014858,145.691921 105.021984,145.669979 C105.025689,145.658869 105.029394,145.647759 105.03367,145.636649 C105.042791,145.613596 105.053907,145.591377 105.066448,145.569157 C105.071864,145.559714 105.076994,145.550826 105.083265,145.541383 C105.090391,145.529995 105.096091,145.517496 105.104357,145.506387 C105.133942,145.467183 105.275402,145.282225 105.518983,145 Z" id="ClosedEye"></path>
        </g>
    </g>
</svg>