<?xml version="1.0" encoding="UTF-8"?>
<svg width="26px" height="19px" viewBox="0 0 26 19" version="1.1" xmlns="http://www.w3.org/2000/svg" xmlns:xlink="http://www.w3.org/1999/xlink">
    <!-- Generator: Sketch 46.1 (44463) - http://www.bohemiancoding.com/sketch -->
    <title>OpenedEye</title>
    <desc>Created with Sketch.</desc>
    <defs></defs>
    <g id="Page-1" stroke="none" stroke-width="1" fill="none" fill-rule="evenodd">
        <g id="Artboard" transform="translate(-64.000000, -140.000000)" fill="#808890">
            <path d="M67.3028599,148.733281 C67.0692963,148.733281 66.8358575,148.644453 66.6611525,148.467707 L64.2493251,146.030549 C63.9077712,145.685619 63.9186201,145.136256 64.2727688,144.803955 C64.6270421,144.471593 65.191186,144.481793 65.5326153,144.826845 L67.9441932,147.263943 C68.2854978,147.609055 68.27521,148.158175 67.9206249,148.490597 C67.747915,148.65271 67.5250757,148.733281 67.3028599,148.733281 Z M70.067963,145.811727 L68.543939,142.768132 C68.3283323,142.337592 68.5122028,141.818223 68.9546393,141.608205 C69.3965769,141.398369 69.9301069,141.5773 70.145776,142.007901 L71.6692388,145.051435 C71.8849079,145.481976 71.7012868,146.001344 71.2591621,146.211423 C71.1331525,146.271047 71.0004091,146.29928 70.8691621,146.29928 C70.5392676,146.29928 70.2222172,146.120045 70.067963,145.811727 Z M74.0154115,144.34421 L73.4946009,140.997762 C73.4208407,140.523931 73.7556609,140.081733 74.2419294,140.009966 C74.7288215,139.938199 75.182668,140.264186 75.2563659,140.737774 L75.7771141,144.084465 C75.8508743,144.558175 75.5160541,145.000251 75.0297232,145.072018 C74.9846441,145.078758 74.939752,145.082036 74.8951093,145.082036 C74.4623371,145.082036 74.0825002,144.774082 74.0154115,144.34421 Z M78.9445625,145.071897 C78.4582316,145.00013 78.1234738,144.558053 78.197234,144.084222 L78.7179822,140.737713 C78.79168,140.264064 79.2457136,139.938138 79.7324186,140.009905 C80.2186249,140.081672 80.5535697,140.52387 80.4797472,140.997701 L79.9590613,144.344271 C79.8918479,144.774022 79.5119486,145.081976 79.0793011,145.081976 C79.0346585,145.081976 78.9898287,145.078636 78.9445625,145.071897 Z M82.7154354,146.211423 C82.2733731,146.001465 82.0895649,145.482097 82.3051716,145.051617 L83.8286345,142.007901 C84.0442412,141.57724 84.5778335,141.398369 85.0197712,141.608205 C85.4622076,141.818223 85.6461405,142.337531 85.4304714,142.768132 L83.9065721,145.811605 C83.7524426,146.119802 83.4352676,146.299158 83.1053107,146.299158 C82.9740014,146.299158 82.8413203,146.270986 82.7154354,146.211423 Z M89.7018287,144.803955 C90.0559774,145.136317 90.066764,145.685619 89.72521,146.030488 L87.3131333,148.467646 C87.1383659,148.644453 86.9052388,148.733281 86.6714882,148.733281 C86.4490853,148.733281 86.226433,148.65271 86.0537856,148.490597 C85.6990757,148.158114 85.6887879,147.608994 86.0300925,147.263882 L88.4419198,144.826724 C88.7834738,144.481793 89.3476177,144.471654 89.7018287,144.803955 Z M87.7426276,151.843812 C87.8307016,151.947689 87.8706057,152.073508 87.8703207,152.198493 C87.8706057,152.323201 87.8307016,152.449019 87.7426276,152.552896 C84.3935355,156.507992 80.7990332,158.51137 77.0540356,158.51137 C76.9585509,158.51137 76.8630661,158.509981 76.7670113,158.507482 C70.5576519,158.338335 66.2833553,152.765649 66.104357,152.528455 C66.0960911,152.517345 66.0903906,152.504846 66.0832648,152.493459 C66.0769942,152.484015 66.0718637,152.475127 66.0664481,152.465684 C66.0539068,152.443464 66.0427907,152.421245 66.0336698,152.398192 C66.0293943,152.387082 66.0256889,152.375972 66.0219836,152.364863 C66.0148578,152.342921 66.0088722,152.320979 66.0045968,152.298759 C66.0020315,152.284039 66.0003214,152.269874 65.9986112,152.255153 C65.996616,152.236266 65.9951908,152.21738 65.9951908,152.198493 C65.9951908,152.179329 65.996616,152.160442 65.9986112,152.141555 C66.0000363,152.126835 66.0017465,152.112392 66.0045968,152.097949 C66.0088722,152.075729 66.0148578,152.053788 66.0219836,152.031846 C66.0256889,152.020736 66.0293943,152.009626 66.0336698,151.998516 C66.0427907,151.975463 66.0536218,151.953244 66.0664481,151.931024 C66.0718637,151.921303 66.0772792,151.912137 66.0832648,151.90325 C66.0903906,151.891584 66.0960911,151.879363 66.104357,151.868254 C66.2833553,151.631337 70.5576519,146.058374 76.7670113,145.889227 C80.6157595,145.793127 84.3083118,147.787617 87.7426276,151.843812 Z M76.8718426,157.182005 C80.1356655,157.273918 83.2996487,155.572982 86.3044949,152.151492 C83.2993729,148.73027 80.1323559,147.037666 76.8718426,147.120711 C72.2000582,147.244606 68.6306483,151.022462 67.666174,152.151492 C68.6306483,153.280522 72.200334,157.05811 76.8718426,157.182005 Z M77.2182124,148.541418 C79.2878088,148.541418 80.9711908,150.181783 80.9711908,152.198215 C80.9711908,154.214925 79.2878088,155.85529 77.2182124,155.85529 C75.148616,155.85529 73.465234,154.214925 73.465234,152.198215 C73.465234,150.181783 75.148616,148.541418 77.2182124,148.541418 Z" id="OpenedEye"></path>
        </g>
    </g>
</svg>